<svg xmlns="http://www.w3.org/2000/svg" xmlns:xlink="http://www.w3.org/1999/xlink" xmlns:lucid="lucid" width="1739.5" height="1400"><g transform="translate(1380 460)" lucid:page-tab-id="0_0"><path d="M-1500-500H500v1500h-2000z" fill="#fff"/><path d="M-680-232c0-4.42 3.58-8 8-8h384c4.42 0 8 3.58 8 8v984c0 4.42-3.58 8-8 8h-384c-4.42 0-8-3.58-8-8z" stroke="#333" fill="#ffeca9"/><use xlink:href="#a" transform="matrix(1,0,0,1,-675,-235) translate(0 21.511111111111106)"/><path d="M-107.14 8c0-4.42 3.58-8 8-8H331.5c4.42 0 8 3.58 8 8v704c0 4.42-3.58 8-8 8H-99.14c-4.42 0-8-3.58-8-8z" stroke="#333" fill="#c7e8ac"/><use xlink:href="#b" transform="matrix(1,0,0,1,-102.14090140527514,5.000000000000114) translate(0 21.511111111111106)"/><path d="M-660-172c0-4.42 3.58-8 8-8h144c4.42 0 8 3.58 8 8v104c0 4.42-3.58 8-8 8h-144c-4.42 0-8-3.58-8-8z" stroke="#333" fill="#fff"/><use xlink:href="#c" transform="matrix(1,0,0,1,-655,-175) translate(13.049999999999997 48.775)"/><use xlink:href="#d" transform="matrix(1,0,0,1,-655,-175) translate(85 48.775)"/><use xlink:href="#e" transform="matrix(1,0,0,1,-655,-175) translate(55 70.375)"/><path d="M-376.4-175.2c3.53-2.65 9.27-2.65 12.8 0l67.2 50.4c3.53 2.65 3.53 6.95 0 9.6l-67.2 50.4c-3.53 2.65-9.27 2.65-12.8 0l-67.2-50.4c-3.53-2.65-3.53-6.95 0-9.6z" stroke="#333" fill="#fff"/><use xlink:href="#f" transform="matrix(1,0,0,1,-444.99999999999994,-175) translate(30.529999999999994 59.0875)"/><use xlink:href="#g" transform="matrix(1,0,0,1,-444.99999999999994,-175) translate(95.53 59.0875)"/><path d="M-369.5 603.12h-1V289.34h1zm0-335.38h-1V-61.9h1zM-369.5-62.4v.5h-1v-.52zM-370 617.88l-4.64-14.26h9.28z" fill="#7ab648"/><path d="M-370 619.5l-5.32-16.38h10.64zm-3.95-15.38l3.95 12.14 3.95-12.14z" fill="#7ab648"/><use xlink:href="#h" transform="matrix(1,0,0,1,-384.67499999999995,267.74314948900707) translate(0.005000000000000782 14.4)"/><path d="M-188.07 107.97l.4 3 1.14 2.77 1.83 2.4 2.4 1.82 2.75 1.14 3 .4h76.38v1h-76.43l-3.2-.42-3-1.24-2.6-2-2-2.6-1.25-3-.42-3.2V10.8h1zm-9.26-228.05l3 1.24 2.6 2 2 2.6 1.24 3 .43 3.2v97.24h-1v-97.17l-.4-3-1.14-2.77-1.84-2.4-2.4-1.82-2.75-1.14-3-.4h-92.26v-1h92.32z" fill="#c92d39"/><path d="M-292.85-119.5h-.53l.04-1h.5zM-85.4 120l-14.27 4.64v-9.28z" fill="#c92d39"/><path d="M-83.78 120l-16.4 5.32v-10.64zm-15.4 3.95L-87 120l-12.15-3.95z" fill="#c92d39"/><use xlink:href="#i" transform="matrix(1,0,0,1,-200.04545070263754,-10.80000000000003) translate(0.005000000000000782 14.4)"/><path d="M-450 628c0-4.42 3.58-8 8-8h144c4.42 0 8 3.58 8 8v104c0 4.42-3.58 8-8 8h-144c-4.42 0-8-3.58-8-8z" stroke="#333" fill="#fff"/><use xlink:href="#j" transform="matrix(1,0,0,1,-444.99999999999994,625) translate(17.099999999999994 48.775)"/><use xlink:href="#d" transform="matrix(1,0,0,1,-444.99999999999994,625) translate(80.95 48.775)"/><use xlink:href="#e" transform="matrix(1,0,0,1,-444.99999999999994,625) translate(55 70.375)"/><path d="M-799-120h122.12" stroke="#333" fill="none"/><path d="M-799-119.5h-.5v-1h.5z" fill="#333"/><path d="M-662.12-120l-14.26 4.64v-9.28z" stroke="#333" fill="#333"/><path d="M-499-120h35.98" stroke="#333" fill="none"/><path d="M-499-119.5h-.5v-1h.5z" fill="#333"/><path d="M-448.26-120l-14.26 4.64v-9.28z" stroke="#333" fill="#333"/><path d="M159.5 248c0-4.42 3.58-8 8-8h144c4.42 0 8 3.58 8 8v104c0 4.42-3.58 8-8 8h-144c-4.42 0-8-3.58-8-8z" stroke="#333" fill="#fff"/><use xlink:href="#k" transform="matrix(1,0,0,1,164.5,245) translate(13.100000000000001 48.775)"/><use xlink:href="#l" transform="matrix(1,0,0,1,164.5,245) translate(76 48.775)"/><use xlink:href="#m" transform="matrix(1,0,0,1,164.5,245) translate(115.94999999999999 48.775)"/><use xlink:href="#n" transform="matrix(1,0,0,1,164.5,245) translate(31.574999999999996 70.375)"/><path d="M-13.54 64.8c3.53-2.65 9.26-2.65 12.8 0l67.2 50.4c3.53 2.65 3.53 6.95 0 9.6l-67.2 50.4c-3.54 2.65-9.27 2.65-12.8 0l-67.2-50.4c-3.54-2.65-3.54-6.95 0-9.6z" stroke="#333" fill="#fff"/><use xlink:href="#f" transform="matrix(1,0,0,1,-82.14090140527514,64.99999999999997) translate(30.529999999999994 59.0875)"/><use xlink:href="#g" transform="matrix(1,0,0,1,-82.14090140527514,64.99999999999997) translate(95.53 59.0875)"/><path d="M-6.64 668.03l-.42 3.2-1.24 3-2 2.6-2.6 2-3 1.25-3.2.42h-254.02v-1h253.95l3-.4 2.77-1.14 2.4-1.83 1.82-2.4 1.14-2.75.4-3v-365.3h1zm0-386.95h-1v-103h1z" fill="#7ab648"/><path d="M-6.64 177.6v.5h-1v-.52zM-273.62 684.64l-14.26-4.64 14.26-4.64z" fill="#7ab648"/><path d="M-273.12 685.32L-289.5 680l16.38-5.32zm-13.14-5.32l12.14 3.95v-7.9z" fill="#7ab648"/><use xlink:href="#h" transform="matrix(1,0,0,1,-21.815901405275145,281.0847270180742) translate(0.005000000000000782 14.4)"/><path d="M114.75 287.97l.4 3 1.14 2.77 1.82 2.4 2.4 1.82 2.75 1.14 3 .4h16.35v1h-16.4l-3.2-.42-3-1.24-2.6-2-2-2.6-1.25-3-.42-3.2V220.8h1zm-9.26-168.05l3 1.24 2.6 2 2 2.6 1.23 3 .42 3.2v67.24h-1v-67.17l-.4-3-1.14-2.77-1.82-2.4-2.4-1.82-2.75-1.14-3-.4H70v-1h32.28z" fill="#333"/><path d="M70 120.5h-.52l.04-1h.5zM157.38 300l-14.26 4.64v-9.28z" fill="#333"/><path d="M159 300l-16.38 5.32v-10.64zm-15.38 3.95l12.14-3.95-12.14-3.95z" fill="#333"/><use xlink:href="#o" transform="matrix(1,0,0,1,102.77499999999998,199.2) translate(0.005000000000000782 14.4)"/><path d="M-451 680h-332.12" stroke="#333" fill="none"/><path d="M-450.5 680.5h-.5v-1h.5z" fill="#333"/><path d="M-797.88 680l14.26-4.64v9.28z" stroke="#333" fill="#333"/><path d="M239.5 361v31c0 6.63-5.37 12-12 12H-783.12" stroke="#333" fill="none"/><path d="M240 361h-1v-.5h1z" fill="#333"/><path d="M-797.88 404l14.26-4.64v9.28z" stroke="#333" fill="#333"/><path d="M159.5 508c0-4.42 3.58-8 8-8h144c4.42 0 8 3.58 8 8v104c0 4.42-3.58 8-8 8h-144c-4.42 0-8-3.58-8-8z" stroke="#333" fill="#fff"/><use xlink:href="#p" transform="matrix(1,0,0,1,159.5,500) translate(55.53 63.15)"/><use xlink:href="#q" transform="matrix(1,0,0,1,159.5,500) translate(90.53 63.15)"/><path d="M239.5 621v47c0 6.63-5.37 12-12 12h-500.62" stroke="#333" fill="none"/><path d="M240 621h-1v-.5h1z" fill="#333"/><path d="M-287.88 680l14.26-4.64v9.28z" stroke="#333" fill="#333"/><path d="M239.5 483.12V470c0-6.63-5.37-12-12-12H-799" stroke="#333" fill="none"/><path d="M239.5 497.88l-4.64-14.26h9.28z" stroke="#333" fill="#333"/><path d="M-799 458.5h-.5v-1h.5z" fill="#333"/><path d="M-840-232c0-4.42 3.58-8 8-8h24c4.42 0 8 3.58 8 8v984c0 4.42-3.58 8-8 8h-24c-4.42 0-8-3.58-8-8z" stroke="#333" fill="#666"/><g><path d="M-892 400c-4.42 0-8-3.58-8-8V168c0-4.42 3.58-8 8-8h44c4.42 0 8 3.58 8 8v224c0 4.42-3.58 8-8 8z" stroke="#000" stroke-opacity="0" fill="#fff" fill-opacity="0"/></g><g><use xlink:href="#r" transform="matrix(6.123233995736766e-17,-1,1,6.123233995736766e-17,-895,395) translate(72.65493827160498 35.302777777777756)"/></g><path d="M-1360-432c0-4.42 3.58-8 8-8h444c4.42 0 8 3.58 8 8V912c0 4.42-3.58 8-8 8h-444c-4.42 0-8-3.58-8-8z" fill="none"/><path d="M-900 920c-46.94 0-85-38.06-85-85V325c0-46.94-38.06-85-85-85 46.94 0 85-38.06 85-85v-510c0-46.94 38.06-85 85-85" stroke="#333" stroke-width="7" fill="none"/><g><use xlink:href="#s" transform="matrix(1,0,0,1,-1355,-435) translate(52.95740740740745 683.9333333333334)"/></g><defs><path fill="#333" d="M114-157C55-157 80-60 75 0H25v-261h50l-1 109c12-26 28-41 61-42 86-1 58 113 63 194h-50c-7-57 23-157-34-157" id="t"/><path fill="#333" d="M115-3C79 11 28 4 28-45v-112H4v-33h27l15-45h31v45h36v33H77v99c-1 23 16 31 38 25v30" id="u"/><path fill="#333" d="M135-194c53 0 70 44 70 98 0 56-19 98-73 100-31 1-45-17-59-34 3 33 2 69 2 105H25l-1-265h48c2 10 0 23 3 31 11-24 29-35 60-35zM114-30c33 0 39-31 40-66 0-38-9-64-40-64-56 0-55 130 0 130" id="v"/><path fill="#333" d="M137-138c1-29-70-34-71-4 15 46 118 7 119 86 1 83-164 76-172 9l43-7c4 19 20 25 44 25 33 8 57-30 24-41C81-84 22-81 20-136c-2-80 154-74 161-7" id="w"/><path fill="#333" d="M35-132v-50h50v50H35zM35 0v-49h50V0H35" id="x"/><path fill="#333" d="M4 7l51-268h42L46 7H4" id="y"/><path fill="#333" d="M133-34C117-15 103 5 69 4 32 3 11-16 11-54c-1-60 55-63 116-61 1-26-3-47-28-47-18 1-26 9-28 27l-52-2c7-38 36-58 82-57s74 22 75 68l1 82c-1 14 12 18 25 15v27c-30 8-71 5-69-32zm-48 3c29 0 43-24 42-57-32 0-66-3-65 30 0 17 8 27 23 27" id="z"/><path fill="#333" d="M24 0v-54h51V0H24" id="A"/><path fill="#333" d="M231 0h-52l-39-155L100 0H48L-1-190h46L77-45c9-52 24-97 36-145h53l37 145 32-145h46" id="B"/><path fill="#333" d="M25-224v-37h50v37H25zM25 0v-190h50V0H25" id="C"/><path fill="#333" d="M195-6C206 82 75 100 31 46c-4-6-6-13-8-21l49-6c3 16 16 24 34 25 40 0 42-37 40-79-11 22-30 35-61 35-53 0-70-43-70-97 0-56 18-96 73-97 30 0 46 14 59 34l2-30h47zm-90-29c32 0 41-27 41-63 0-35-9-62-40-62-32 0-39 29-40 63 0 36 9 62 39 62" id="D"/><path fill="#333" d="M190-63c-7 42-38 67-86 67-59 0-84-38-90-98-12-110 154-137 174-36l-49 2c-2-19-15-32-35-32-30 0-35 28-38 64-6 74 65 87 74 30" id="E"/><path fill="#333" d="M185-48c-13 30-37 53-82 52C43 2 14-33 14-96s30-98 90-98c62 0 83 45 84 108H66c0 31 8 55 39 56 18 0 30-7 34-22zm-45-69c5-46-57-63-70-21-2 6-4 13-4 21h74" id="F"/><path fill="#333" d="M135-194c87-1 58 113 63 194h-50c-7-57 23-157-34-157-59 0-34 97-39 157H25l-1-190h47c2 12-1 28 3 38 12-26 28-41 61-42" id="G"/><path fill="#333" d="M110-194c64 0 96 36 96 99 0 64-35 99-97 99-61 0-95-36-95-99 0-62 34-99 96-99zm-1 164c35 0 45-28 45-65 0-40-10-65-43-65-34 0-45 26-45 65 0 36 10 65 43 65" id="H"/><path fill="#333" d="M220-157c-53 9-28 100-34 157h-49v-107c1-27-5-49-29-50C55-147 81-57 75 0H25l-1-190h47c2 12-1 28 3 38 10-53 101-56 108 0 13-22 24-43 59-42 82 1 51 116 57 194h-49v-107c-1-25-5-48-29-50" id="I"/><g id="a"><use transform="matrix(0.07469135802469135,0,0,0.07469135802469135,0,0)" xlink:href="#t"/><use transform="matrix(0.07469135802469135,0,0,0.07469135802469135,16.357407407407404,0)" xlink:href="#u"/><use transform="matrix(0.07469135802469135,0,0,0.07469135802469135,25.245679012345676,0)" xlink:href="#u"/><use transform="matrix(0.07469135802469135,0,0,0.07469135802469135,34.13395061728394,0)" xlink:href="#v"/><use transform="matrix(0.07469135802469135,0,0,0.07469135802469135,50.49135802469135,0)" xlink:href="#w"/><use transform="matrix(0.07469135802469135,0,0,0.07469135802469135,65.42962962962962,0)" xlink:href="#x"/><use transform="matrix(0.07469135802469135,0,0,0.07469135802469135,74.31790123456788,0)" xlink:href="#y"/><use transform="matrix(0.07469135802469135,0,0,0.07469135802469135,81.78703703703702,0)" xlink:href="#y"/><use transform="matrix(0.07469135802469135,0,0,0.07469135802469135,89.25617283950616,0)" xlink:href="#z"/><use transform="matrix(0.07469135802469135,0,0,0.07469135802469135,104.19444444444443,0)" xlink:href="#v"/><use transform="matrix(0.07469135802469135,0,0,0.07469135802469135,120.55185185185184,0)" xlink:href="#v"/><use transform="matrix(0.07469135802469135,0,0,0.07469135802469135,136.90925925925924,0)" xlink:href="#A"/><use transform="matrix(0.07469135802469135,0,0,0.07469135802469135,144.37839506172838,0)" xlink:href="#u"/><use transform="matrix(0.07469135802469135,0,0,0.07469135802469135,153.26666666666665,0)" xlink:href="#B"/><use transform="matrix(0.07469135802469135,0,0,0.07469135802469135,174.18024691358022,0)" xlink:href="#C"/><use transform="matrix(0.07469135802469135,0,0,0.07469135802469135,181.64938271604936,0)" xlink:href="#D"/><use transform="matrix(0.07469135802469135,0,0,0.07469135802469135,198.00679012345677,0)" xlink:href="#w"/><use transform="matrix(0.07469135802469135,0,0,0.07469135802469135,212.94506172839505,0)" xlink:href="#E"/><use transform="matrix(0.07469135802469135,0,0,0.07469135802469135,227.88333333333333,0)" xlink:href="#C"/><use transform="matrix(0.07469135802469135,0,0,0.07469135802469135,235.35246913580247,0)" xlink:href="#F"/><use transform="matrix(0.07469135802469135,0,0,0.07469135802469135,250.29074074074074,0)" xlink:href="#G"/><use transform="matrix(0.07469135802469135,0,0,0.07469135802469135,266.64814814814815,0)" xlink:href="#E"/><use transform="matrix(0.07469135802469135,0,0,0.07469135802469135,281.58641975308643,0)" xlink:href="#F"/><use transform="matrix(0.07469135802469135,0,0,0.07469135802469135,296.5246913580247,0)" xlink:href="#A"/><use transform="matrix(0.07469135802469135,0,0,0.07469135802469135,303.9938271604938,0)" xlink:href="#E"/><use transform="matrix(0.07469135802469135,0,0,0.07469135802469135,318.9320987654321,0)" xlink:href="#H"/><use transform="matrix(0.07469135802469135,0,0,0.07469135802469135,335.2895061728394,0)" xlink:href="#I"/></g><path fill="#333" d="M25 0v-261h50V0H25" id="J"/><g id="b"><use transform="matrix(0.07469135802469133,0,0,0.07469135802469133,0,0)" xlink:href="#t"/><use transform="matrix(0.07469135802469133,0,0,0.07469135802469133,16.3574074074074,0)" xlink:href="#u"/><use transform="matrix(0.07469135802469133,0,0,0.07469135802469133,25.24567901234567,0)" xlink:href="#u"/><use transform="matrix(0.07469135802469133,0,0,0.07469135802469133,34.133950617283936,0)" xlink:href="#v"/><use transform="matrix(0.07469135802469133,0,0,0.07469135802469133,50.49135802469134,0)" xlink:href="#w"/><use transform="matrix(0.07469135802469133,0,0,0.07469135802469133,65.4296296296296,0)" xlink:href="#x"/><use transform="matrix(0.07469135802469133,0,0,0.07469135802469133,74.31790123456787,0)" xlink:href="#y"/><use transform="matrix(0.07469135802469133,0,0,0.07469135802469133,81.78703703703701,0)" xlink:href="#y"/><use transform="matrix(0.07469135802469133,0,0,0.07469135802469133,89.25617283950614,0)" xlink:href="#J"/><use transform="matrix(0.07469135802469133,0,0,0.07469135802469133,96.72530864197529,0)" xlink:href="#H"/><use transform="matrix(0.07469135802469133,0,0,0.07469135802469133,113.0827160493827,0)" xlink:href="#D"/><use transform="matrix(0.07469135802469133,0,0,0.07469135802469133,129.4401234567901,0)" xlink:href="#C"/><use transform="matrix(0.07469135802469133,0,0,0.07469135802469133,136.90925925925924,0)" xlink:href="#G"/><use transform="matrix(0.07469135802469133,0,0,0.07469135802469133,153.26666666666665,0)" xlink:href="#A"/><use transform="matrix(0.07469135802469133,0,0,0.07469135802469133,160.7358024691358,0)" xlink:href="#u"/><use transform="matrix(0.07469135802469133,0,0,0.07469135802469133,169.62407407407406,0)" xlink:href="#B"/><use transform="matrix(0.07469135802469133,0,0,0.07469135802469133,190.53765432098763,0)" xlink:href="#C"/><use transform="matrix(0.07469135802469133,0,0,0.07469135802469133,198.00679012345677,0)" xlink:href="#D"/><use transform="matrix(0.07469135802469133,0,0,0.07469135802469133,214.3641975308642,0)" xlink:href="#w"/><use transform="matrix(0.07469135802469133,0,0,0.07469135802469133,229.30246913580245,0)" xlink:href="#E"/><use transform="matrix(0.07469135802469133,0,0,0.07469135802469133,244.24074074074073,0)" xlink:href="#C"/><use transform="matrix(0.07469135802469133,0,0,0.07469135802469133,251.7098765432099,0)" xlink:href="#F"/><use transform="matrix(0.07469135802469133,0,0,0.07469135802469133,266.64814814814815,0)" xlink:href="#G"/><use transform="matrix(0.07469135802469133,0,0,0.07469135802469133,283.00555555555553,0)" xlink:href="#E"/><use transform="matrix(0.07469135802469133,0,0,0.07469135802469133,297.9438271604938,0)" xlink:href="#F"/><use transform="matrix(0.07469135802469133,0,0,0.07469135802469133,312.88209876543203,0)" xlink:href="#A"/><use transform="matrix(0.07469135802469133,0,0,0.07469135802469133,320.3512345679012,0)" xlink:href="#E"/><use transform="matrix(0.07469135802469133,0,0,0.07469135802469133,335.2895061728395,0)" xlink:href="#H"/><use transform="matrix(0.07469135802469133,0,0,0.07469135802469133,351.64691358024686,0)" xlink:href="#I"/></g><path fill="#333" d="M233-177c-1 41-23 64-60 70L243 0h-38l-65-103H63V0H30v-248c88 3 205-21 203 71zM63-129c60-2 137 13 137-47 0-61-80-42-137-45v92" id="K"/><path fill="#333" d="M100-194c63 0 86 42 84 106H49c0 40 14 67 53 68 26 1 43-12 49-29l28 8c-11 28-37 45-77 45C44 4 14-33 15-96c1-61 26-98 85-98zm52 81c6-60-76-77-97-28-3 7-6 17-6 28h103" id="L"/><path fill="#333" d="M145-31C134-9 116 4 85 4 32 4 16-35 15-94c0-59 17-99 70-100 32-1 48 14 60 33 0-11-1-24 2-32h30l-1 268h-32zM93-21c41 0 51-33 51-76s-8-73-50-73c-40 0-46 35-46 75s5 74 45 74" id="M"/><path fill="#333" d="M84 4C-5 8 30-112 23-190h32v120c0 31 7 50 39 49 72-2 45-101 50-169h31l1 190h-30c-1-10 1-25-2-33-11 22-28 36-60 37" id="N"/><path fill="#333" d="M135-143c-3-34-86-38-87 0 15 53 115 12 119 90S17 21 10-45l28-5c4 36 97 45 98 0-10-56-113-15-118-90-4-57 82-63 122-42 12 7 21 19 24 35" id="O"/><path fill="#333" d="M59-47c-2 24 18 29 38 22v24C64 9 27 4 27-40v-127H5v-23h24l9-43h21v43h35v23H59v120" id="P"/><g id="c"><use transform="matrix(0.05,0,0,0.05,0,0)" xlink:href="#K"/><use transform="matrix(0.05,0,0,0.05,12.950000000000001,0)" xlink:href="#L"/><use transform="matrix(0.05,0,0,0.05,22.950000000000003,0)" xlink:href="#M"/><use transform="matrix(0.05,0,0,0.05,32.95,0)" xlink:href="#N"/><use transform="matrix(0.05,0,0,0.05,42.95,0)" xlink:href="#L"/><use transform="matrix(0.05,0,0,0.05,52.95,0)" xlink:href="#O"/><use transform="matrix(0.05,0,0,0.05,61.95,0)" xlink:href="#P"/></g><path fill="#333" d="M24 0v-261h32V0H24" id="Q"/><path fill="#333" d="M100-194c62-1 85 37 85 99 1 63-27 99-86 99S16-35 15-95c0-66 28-99 85-99zM99-20c44 1 53-31 53-75 0-43-8-75-51-75s-53 32-53 75 10 74 51 75" id="R"/><path fill="#333" d="M117-194c89-4 53 116 60 194h-32v-121c0-31-8-49-39-48C34-167 62-67 57 0H25l-1-190h30c1 10-1 24 2 32 11-22 29-35 61-36" id="S"/><g id="d"><use transform="matrix(0.05,0,0,0.05,0,0)" xlink:href="#Q"/><use transform="matrix(0.05,0,0,0.05,3.95,0)" xlink:href="#L"/><use transform="matrix(0.05,0,0,0.05,13.949999999999998,0)" xlink:href="#O"/><use transform="matrix(0.05,0,0,0.05,22.95,0)" xlink:href="#O"/><use transform="matrix(0.05,0,0,0.05,31.950000000000003,0)" xlink:href="#R"/><use transform="matrix(0.05,0,0,0.05,41.95,0)" xlink:href="#S"/></g><path fill="#333" d="M115-194c55 1 70 41 70 98S169 2 115 4C84 4 66-9 55-30l1 105H24l-1-265h31l2 30c10-21 28-34 59-34zm-8 174c40 0 45-34 45-75s-6-73-45-74c-42 0-51 32-51 76 0 43 10 73 51 73" id="T"/><path fill="#333" d="M141-36C126-15 110 5 73 4 37 3 15-17 15-53c-1-64 63-63 125-63 3-35-9-54-41-54-24 1-41 7-42 31l-33-3c5-37 33-52 76-52 45 0 72 20 72 64v82c-1 20 7 32 28 27v20c-31 9-61-2-59-35zM48-53c0 20 12 33 32 33 41-3 63-29 60-74-43 2-92-5-92 41" id="U"/><path fill="#333" d="M177-190C167-65 218 103 67 71c-23-6-38-20-44-43l32-5c15 47 100 32 89-28v-30C133-14 115 1 83 1 29 1 15-40 15-95c0-56 16-97 71-98 29-1 48 16 59 35 1-10 0-23 2-32h30zM94-22c36 0 50-32 50-73 0-42-14-75-50-75-39 0-46 34-46 75s6 73 46 73" id="V"/><g id="e"><use transform="matrix(0.05,0,0,0.05,0,0)" xlink:href="#T"/><use transform="matrix(0.05,0,0,0.05,10,0)" xlink:href="#U"/><use transform="matrix(0.05,0,0,0.05,20,0)" xlink:href="#V"/><use transform="matrix(0.05,0,0,0.05,30,0)" xlink:href="#L"/></g><path fill="#333" d="M30 0v-248h33v221h125V0H30" id="W"/><path fill="#333" d="M85-194c31 0 48 13 60 33l-1-100h32l1 261h-30c-2-10 0-23-3-31C134-8 116 4 85 4 32 4 16-35 15-94c0-66 23-100 70-100zm9 24c-40 0-46 34-46 75 0 40 6 74 45 74 42 0 51-32 51-76 0-42-9-74-50-73" id="X"/><g id="f"><use transform="matrix(0.05,0,0,0.05,0,0)" xlink:href="#W"/><use transform="matrix(0.05,0,0,0.05,10,0)" xlink:href="#R"/><use transform="matrix(0.05,0,0,0.05,20,0)" xlink:href="#V"/><use transform="matrix(0.05,0,0,0.05,30,0)" xlink:href="#V"/><use transform="matrix(0.05,0,0,0.05,40,0)" xlink:href="#L"/><use transform="matrix(0.05,0,0,0.05,50,0)" xlink:href="#X"/></g><path fill="#333" d="M24-231v-30h32v30H24zM24 0v-190h32V0H24" id="Y"/><path fill="#333" d="M103-251c84 0 111 97 45 133-19 10-37 24-39 52H78c0-63 77-55 77-114 0-30-21-42-52-43-32 0-53 17-56 46l-32-2c7-45 34-72 88-72zM77 0v-35h34V0H77" id="Z"/><g id="g"><use transform="matrix(0.05,0,0,0.05,0,0)" xlink:href="#Y"/><use transform="matrix(0.05,0,0,0.05,3.95,0)" xlink:href="#S"/><use transform="matrix(0.05,0,0,0.05,13.949999999999998,0)" xlink:href="#Z"/></g><path fill="#7ab648" d="M137-103V0h-34v-103L8-248h37l75 118 75-118h37" id="aa"/><path fill="#7ab648" d="M100-194c63 0 86 42 84 106H49c0 40 14 67 53 68 26 1 43-12 49-29l28 8c-11 28-37 45-77 45C44 4 14-33 15-96c1-61 26-98 85-98zm52 81c6-60-76-77-97-28-3 7-6 17-6 28h103" id="ab"/><path fill="#7ab648" d="M135-143c-3-34-86-38-87 0 15 53 115 12 119 90S17 21 10-45l28-5c4 36 97 45 98 0-10-56-113-15-118-90-4-57 82-63 122-42 12 7 21 19 24 35" id="ac"/><g id="h"><use transform="matrix(0.05,0,0,0.05,0,0)" xlink:href="#aa"/><use transform="matrix(0.05,0,0,0.05,10.35,0)" xlink:href="#ab"/><use transform="matrix(0.05,0,0,0.05,20.35,0)" xlink:href="#ac"/></g><path fill="#c92d39" d="M190 0L58-211 59 0H30v-248h39L202-35l-2-213h31V0h-41" id="ad"/><path fill="#c92d39" d="M100-194c62-1 85 37 85 99 1 63-27 99-86 99S16-35 15-95c0-66 28-99 85-99zM99-20c44 1 53-31 53-75 0-43-8-75-51-75s-53 32-53 75 10 74 51 75" id="ae"/><g id="i"><use transform="matrix(0.05,0,0,0.05,0,0)" xlink:href="#ad"/><use transform="matrix(0.05,0,0,0.05,12.950000000000001,0)" xlink:href="#ae"/></g><path fill="#333" d="M30-248c118-7 216 8 213 122C240-48 200 0 122 0H30v-248zM63-27c89 8 146-16 146-99s-60-101-146-95v194" id="af"/><path fill="#333" d="M179-190L93 31C79 59 56 82 12 73V49c39 6 53-20 64-50L1-190h34L92-34l54-156h33" id="ag"/><g id="j"><use transform="matrix(0.05,0,0,0.05,0,0)" xlink:href="#af"/><use transform="matrix(0.05,0,0,0.05,12.950000000000001,0)" xlink:href="#Y"/><use transform="matrix(0.05,0,0,0.05,16.900000000000002,0)" xlink:href="#O"/><use transform="matrix(0.05,0,0,0.05,25.900000000000002,0)" xlink:href="#T"/><use transform="matrix(0.05,0,0,0.05,35.900000000000006,0)" xlink:href="#Q"/><use transform="matrix(0.05,0,0,0.05,39.85000000000001,0)" xlink:href="#U"/><use transform="matrix(0.05,0,0,0.05,49.85000000000001,0)" xlink:href="#ag"/></g><path fill="#333" d="M30-248c87 1 191-15 191 75 0 78-77 80-158 76V0H30v-248zm33 125c57 0 124 11 124-50 0-59-68-47-124-48v98" id="ah"/><path fill="#333" d="M114-163C36-179 61-72 57 0H25l-1-190h30c1 12-1 29 2 39 6-27 23-49 58-41v29" id="ai"/><path fill="#333" d="M210-169c-67 3-38 105-44 169h-31v-121c0-29-5-50-35-48C34-165 62-65 56 0H25l-1-190h30c1 10-1 24 2 32 10-44 99-50 107 0 11-21 27-35 58-36 85-2 47 119 55 194h-31v-121c0-29-5-49-35-48" id="aj"/><g id="k"><use transform="matrix(0.05,0,0,0.05,0,0)" xlink:href="#ah"/><use transform="matrix(0.05,0,0,0.05,12,0)" xlink:href="#ai"/><use transform="matrix(0.05,0,0,0.05,17.95,0)" xlink:href="#R"/><use transform="matrix(0.05,0,0,0.05,27.950000000000003,0)" xlink:href="#aj"/><use transform="matrix(0.05,0,0,0.05,42.9,0)" xlink:href="#T"/><use transform="matrix(0.05,0,0,0.05,52.900000000000006,0)" xlink:href="#P"/></g><g id="l"><use transform="matrix(0.05,0,0,0.05,0,0)" xlink:href="#N"/><use transform="matrix(0.05,0,0,0.05,10,0)" xlink:href="#O"/><use transform="matrix(0.05,0,0,0.05,19,0)" xlink:href="#L"/><use transform="matrix(0.05,0,0,0.05,29,0)" xlink:href="#ai"/></g><path fill="#333" d="M101-234c-31-9-42 10-38 44h38v23H63V0H32v-167H5v-23h27c-7-52 17-82 69-68v24" id="ak"/><g id="m"><use transform="matrix(0.05,0,0,0.05,0,0)" xlink:href="#ak"/><use transform="matrix(0.05,0,0,0.05,5,0)" xlink:href="#R"/><use transform="matrix(0.05,0,0,0.05,15,0)" xlink:href="#ai"/></g><path fill="#333" d="M96-169c-40 0-48 33-48 73s9 75 48 75c24 0 41-14 43-38l32 2c-6 37-31 61-74 61-59 0-76-41-82-99-10-93 101-131 147-64 4 7 5 14 7 22l-32 3c-4-21-16-35-41-35" id="al"/><g id="n"><use transform="matrix(0.05,0,0,0.05,0,0)" xlink:href="#al"/><use transform="matrix(0.05,0,0,0.05,9,0)" xlink:href="#ai"/><use transform="matrix(0.05,0,0,0.05,14.949999999999998,0)" xlink:href="#L"/><use transform="matrix(0.05,0,0,0.05,24.95,0)" xlink:href="#X"/><use transform="matrix(0.05,0,0,0.05,34.95,0)" xlink:href="#L"/><use transform="matrix(0.05,0,0,0.05,44.95,0)" xlink:href="#S"/><use transform="matrix(0.05,0,0,0.05,54.95,0)" xlink:href="#P"/><use transform="matrix(0.05,0,0,0.05,59.95,0)" xlink:href="#Y"/><use transform="matrix(0.05,0,0,0.05,63.900000000000006,0)" xlink:href="#U"/><use transform="matrix(0.05,0,0,0.05,73.9,0)" xlink:href="#Q"/><use transform="matrix(0.05,0,0,0.05,77.85000000000001,0)" xlink:href="#O"/></g><path fill="#333" d="M190 0L58-211 59 0H30v-248h39L202-35l-2-213h31V0h-41" id="am"/><g id="o"><use transform="matrix(0.05,0,0,0.05,0,0)" xlink:href="#am"/><use transform="matrix(0.05,0,0,0.05,12.950000000000001,0)" xlink:href="#R"/></g><path d="M30 0v-248h33v221h125V0H30" id="an"/><path d="M100-194c62-1 85 37 85 99 1 63-27 99-86 99S16-35 15-95c0-66 28-99 85-99zM99-20c44 1 53-31 53-75 0-43-8-75-51-75s-53 32-53 75 10 74 51 75" id="ao"/><path d="M177-190C167-65 218 103 67 71c-23-6-38-20-44-43l32-5c15 47 100 32 89-28v-30C133-14 115 1 83 1 29 1 15-40 15-95c0-56 16-97 71-98 29-1 48 16 59 35 1-10 0-23 2-32h30zM94-22c36 0 50-32 50-73 0-42-14-75-50-75-39 0-46 34-46 75s6 73 46 73" id="ap"/><g id="p"><use transform="matrix(0.05,0,0,0.05,0,0)" xlink:href="#an"/><use transform="matrix(0.05,0,0,0.05,10,0)" xlink:href="#ao"/><use transform="matrix(0.05,0,0,0.05,20,0)" xlink:href="#ap"/><path d="M-.9 1.25h36.8v1.32H-.9z"/></g><path d="M24-231v-30h32v30H24zM24 0v-190h32V0H24" id="aq"/><path d="M117-194c89-4 53 116 60 194h-32v-121c0-31-8-49-39-48C34-167 62-67 57 0H25l-1-190h30c1 10-1 24 2 32 11-22 29-35 61-36" id="ar"/><g id="q"><use transform="matrix(0.05,0,0,0.05,0,0)" xlink:href="#aq"/><use transform="matrix(0.05,0,0,0.05,3.95,0)" xlink:href="#ar"/><path d="M-.9 1.25h15.75v1.32H-.9z"/></g><path fill="#333" d="M232-93c-1 65-40 97-104 97C67 4 28-28 28-90v-158h33c8 89-33 224 67 224 102 0 64-133 71-224h33v155" id="as"/><g id="r"><use transform="matrix(0.11172839506172831,0,0,0.11172839506172831,0,0)" xlink:href="#as"/><use transform="matrix(0.11172839506172831,0,0,0.11172839506172831,28.937654320987633,0)" xlink:href="#O"/><use transform="matrix(0.11172839506172831,0,0,0.11172839506172831,49.04876543209873,0)" xlink:href="#L"/><use transform="matrix(0.11172839506172831,0,0,0.11172839506172831,71.39444444444439,0)" xlink:href="#ai"/></g><path fill="#333" d="M127-220V0H93v-220H8v-28h204v28h-85" id="at"/><path fill="#333" d="M185-189c-5-48-123-54-124 2 14 75 158 14 163 119 3 78-121 87-175 55-17-10-28-26-33-46l33-7c5 56 141 63 141-1 0-78-155-14-162-118-5-82 145-84 179-34 5 7 8 16 11 25" id="au"/><path fill="#333" d="M212-179c-10-28-35-45-73-45-59 0-87 40-87 99 0 60 29 101 89 101 43 0 62-24 78-52l27 14C228-24 195 4 139 4 59 4 22-46 18-125c-6-104 99-153 187-111 19 9 31 26 39 46" id="av"/><g id="s"><use transform="matrix(0.12407407407407395,0,0,0.12407407407407395,0,0)" xlink:href="#at"/><use transform="matrix(0.12407407407407395,0,0,0.12407407407407395,27.172222222222196,0)" xlink:href="#au"/><use transform="matrix(0.12407407407407395,0,0,0.12407407407407395,56.949999999999946,0)" xlink:href="#av"/></g></defs></g></svg>